# .PCD v0.7 - Point Cloud Data file format
VERSION 0.7
FIELDS x y z
SIZE 4 4 4
TYPE F F F
COUNT 1 1 1
WIDTH 569
HEIGHT 1
VIEWPOINT 0 0 0 1 0 0 0
POINTS 569
DATA ascii
0.31147799 -0.14539695 1.0650033
0.31056389 -0.14817423 1.0650033
0.31055933 -0.15099737 1.0650034
0.3105548 -0.15382051 1.0650035
0.3105503 -0.15664366 1.0650035
0.31054437 -0.16040784 1.0650036
0.31053987 -0.16323096 1.0650036
0.31053537 -0.1660541 1.0650036
0.30785292 -0.15183777 1.0647135
0.30782774 -0.1536772 1.0650035
0.30782321 -0.15649842 1.0650034
0.30781725 -0.16026001 1.0650035
0.30781275 -0.16308121 1.0650035
0.30780828 -0.16590242 1.0650035
0.30780378 -0.16872364 1.0650035
0.32061866 -0.13359226 1.0650033
0.31970033 -0.13637862 1.0650034
0.31969586 -0.13920823 1.0650034
0.31969136 -0.14203785 1.0650034
0.3196387 -0.17505011 1.0650039
0.31963423 -0.17787969 1.0650042
0.3196297 -0.18070932 1.0650042
0.32053444 -0.18642399 1.065004
0.31695914 -0.13718955 1.0650033
0.31695616 -0.13907465 1.0650034
0.31695166 -0.14190234 1.0650034
0.31694716 -0.14473003 1.0650034
0.31689903 -0.17489187 1.0650039
0.31689456 -0.17771952 1.0650041
0.31688848 -0.18148975 1.0650042
0.31513196 -0.13898575 1.0650032
0.31421608 -0.14176702 1.0650034
0.31390688 -0.14520533 1.0650034
0.31451035 -0.14774784 1.0650035
0.31420112 -0.15118611 1.0650036
0.31168813 -0.14292625 1.0624093
0.30978706 -0.14647695 1.0633392
0.30820733 -0.15060426 1.0601314
0.32978335 -0.13308035 1.0650036
0.32970193 -0.18414247 1.0650043
0.3296974 -0.18697926 1.0650043
0.3296929 -0.18981606 1.0650043
0.32703468 -0.13011585 1.0650035
0.32703018 -0.13295069 1.0650035
0.32702562 -0.13578552 1.0650035
0.32606301 -0.17924204 1.0647391
0.32695335 -0.18114276 1.0650041
0.32694879 -0.18397759 1.0650045
0.32694429 -0.18681243 1.0650043
0.32693976 -0.18964724 1.0650043
0.32339987 -0.1328297 1.0646015
0.32305422 -0.13622493 1.0650035
0.32366055 -0.13877195 1.0650035
0.32298705 -0.17839056 1.065004
0.32328817 -0.18092586 1.0650041
0.3232837 -0.18375807 1.0650041
0.32297295 -0.18720105 1.0650041
0.3241916 -0.18853438 1.0650041
0.31556734 -0.13779974 1.0597228
0.33890417 -0.18658935 1.0650045
0.33583373 -0.18482552 1.0650046
0.33613685 -0.1873695 1.0650046
0.33613226 -0.19021088 1.0650047
0.33245924 -0.18430762 1.0650045
0.33245474 -0.18714635 1.0650045
0.33245015 -0.18998511 1.0650046
0.32985911 -0.18157658 1.0633496
0.31931365 -0.1343077 1.0588188
0.31738558 -0.13597101 1.0599132
0.31385905 -0.13980745 1.058183
0.3122665 -0.14201823 1.0551535
0.31027785 -0.14545235 1.0570853
0.30859679 -0.14942238 1.0550928
0.30673799 -0.15971491 1.0552726
0.34537789 -0.18413195 1.0650047
0.34537333 -0.18697983 1.0650048
0.3453688 -0.18982777 1.0650049
0.34260267 -0.18396637 1.0650046
0.34167424 -0.18675657 1.0650047
0.34136069 -0.19021517 1.0650048
0.33992976 -0.18396439 1.0640175
0.33714986 -0.18378122 1.0641261
0.32480758 -0.13074028 1.0590901
0.32135394 -0.1328012 1.0564682
0.35559469 -0.17903051 1.0650048
0.3546617 -0.18087935 1.0650049
0.3546572 -0.18373388 1.0650049
0.35195547 -0.18083934 1.0642476
0.35186911 -0.18356821 1.0650051
0.35186303 -0.1873716 1.0650051
0.3500143 -0.18250754 1.0650047
0.34881061 -0.18375567 1.064674
0.34907937 -0.18720356 1.0650049
0.33220795 -0.18257627 1.0579101
0.36497015 -0.14809355 1.0650046
0.3649658 -0.15095562 1.065003
0.36496091 -0.15381709 1.0650053
0.36495647 -0.156679 1.0650048
0.36495191 -0.15954077 1.0650052
0.36494556 -0.16335623 1.0650072
0.36494127 -0.1662184 1.0650049
0.36493668 -0.1690802 1.0650051
0.36493215 -0.17194203 1.0650049
0.36492756 -0.17480382 1.0650051
0.36217287 -0.14509258 1.0650038
0.36216828 -0.14795233 1.0650043
0.36309698 -0.15085983 1.0650047
0.3630926 -0.15372044 1.0650038
0.36307269 -0.16611579 1.0650047
0.36306834 -0.16897655 1.0650032
0.36213017 -0.17178419 1.0650049
0.36212561 -0.17464399 1.0650049
0.36211956 -0.17845708 1.0650051
0.35937414 -0.14495316 1.0650063
0.35937154 -0.14685895 1.0650022
0.35943753 -0.1746383 1.0640316
0.35838944 -0.17824076 1.0650051
0.35838491 -0.18109792 1.0650051
0.35838035 -0.18395509 1.0650051
0.35409033 -0.17944874 1.0617546
0.3467856 -0.18304481 1.0604017
0.36777177 -0.15109873 1.0650054
0.36776721 -0.15396255 1.0650054
0.36776266 -0.15682642 1.0650052
0.36775807 -0.15969023 1.0650052
0.36775172 -0.16350818 1.0650084
0.36774725 -0.16637217 1.0650072
0.36774299 -0.16923632 1.0650049
0.36346385 -0.15705423 1.0617644
0.36335593 -0.16457474 1.0625898
0.36155933 -0.17031302 1.0618702
0.35790184 -0.17595571 1.0610818
0.35607666 -0.17782244 1.0606781
0.35063234 -0.18154731 1.0592411
0.34524319 -0.18343842 1.0573372
0.36369309 -0.16021986 1.0597492
0.36358392 -0.16295561 1.0606509
0.36203465 -0.15175998 1.0579913
0.36207885 -0.16909693 1.0573666
0.3602058 -0.17283559 1.0572942
0.35286164 -0.1802901 1.0558885
0.53076708 0.073976628 1.0650054
0.53076231 0.070997186 1.0650054
0.52772522 0.070985474 1.0650054
0.54094106 0.084974125 1.0650055
0.5409379 0.082983017 1.0650055
0.54093307 0.079996355 1.0650057
0.5409283 0.077009693 1.0650057
0.53890586 0.084959522 1.0650055
0.53788602 0.082962565 1.0650054
0.53788131 0.079978079 1.0650054
0.53787655 0.076993585 1.0650054
0.53787178 0.074009091 1.0650055
0.53786695 0.071024597 1.0650057
0.53419822 0.079628363 1.0648288
0.53381389 0.076972134 1.0650054
0.53380907 0.073990524 1.0650055
0.53380436 0.071008921 1.0650055
0.54910821 0.089022629 1.0650058
0.54909867 0.083037704 1.0650057
0.54706502 0.089006037 1.0650058
0.54706025 0.086015016 1.0650058
0.54705548 0.08302401 1.0650058
0.54502392 0.088989459 1.0650054
0.54399943 0.085992336 1.0650057
0.54399478 0.083003506 1.0650057
0.54398996 0.080014668 1.0650057
0.54100281 0.086971804 1.0647644
0.53164881 0.077031054 1.0612795
0.55115658 0.091035187 1.0650057
0.55114853 0.086045325 1.0650058
0.53861332 0.085132368 1.0577435
0.53641307 0.083103329 1.058395
0.5345965 0.081114918 1.0574431
0.53055352 0.075104788 1.0572667
0.56654936 0.085157856 1.0650063
0.5665462 0.083154619 1.0650063
0.56750321 0.037075672 1.065007
0.56646949 0.035076752 1.065007
0.56646466 0.032071888 1.065007
0.56337982 0.035091195 1.0650067
0.563375 0.032088529 1.065007
0.55995166 0.034440599 1.0650066
0.56063229 0.031769987 1.065007
0.54459578 0.089162201 1.0584041
0.53306282 0.07915172 1.0552855
0.57584786 0.08723221 1.0650063
0.57584465 0.085224561 1.0650063
0.57583988 0.082213081 1.0650064
0.57583499 0.079201601 1.0650065
0.57583183 0.077193953 1.0650065
0.57577413 0.04105626 1.0650071
0.57576936 0.038044788 1.0650071
0.57576448 0.035033315 1.0650072
0.57274663 0.088211566 1.0650064
0.57274187 0.085202292 1.0650064
0.57273704 0.082193024 1.0650064
0.57376581 0.079189703 1.0650065
0.57269794 0.038056273 1.0648884
0.57266176 0.035047818 1.0650071
0.57265693 0.032038555 1.0650071
0.56965268 0.091194198 1.0650061
0.56964785 0.088187128 1.0650061
0.56964308 0.085180059 1.0650063
0.56963831 0.082172997 1.0650063
0.56956625 0.037067011 1.065007
0.56956315 0.035062298 1.0650069
0.56955832 0.032055236 1.0650069
0.58413529 0.08126092 1.0650066
0.58413202 0.079249337 1.0650069
0.58412725 0.076231964 1.0650067
0.58412242 0.073214591 1.0650069
0.58411753 0.070197217 1.065007
0.58411282 0.067179844 1.0650069
0.58410794 0.06416247 1.065007
0.58410305 0.061145097 1.0650071
0.58409828 0.058127727 1.0650071
0.58409345 0.055110354 1.0650071
0.58408868 0.052092984 1.0650072
0.58408386 0.049075611 1.0650071
0.5840807 0.047064029 1.0650072
0.58407587 0.044046659 1.0650072
0.58407104 0.041029286 1.0650073
0.58205956 0.082253292 1.0650065
0.58205479 0.079237387 1.0650065
0.58204997 0.076221488 1.0650066
0.5820452 0.07320559 1.0650066
0.58204031 0.0701897 1.0650067
0.5821414 0.051089853 1.064523
0.58200657 0.049078427 1.0650071
0.58200336 0.047067828 1.0650071
0.58199859 0.044051934 1.0650071
0.5819937 0.04103604 1.0650072
0.58198887 0.038020149 1.0650073
0.57791907 0.08724805 1.0650065
0.57895249 0.085246861 1.0650064
0.57894766 0.082233176 1.0650065
0.57894289 0.07921949 1.0650064
0.57893807 0.076205805 1.0650065
0.57996982 0.073196605 1.0650065
0.58013469 0.047070757 1.0642431
0.57923174 0.043724194 1.0650072
0.57888192 0.041046161 1.0650072
0.57887715 0.03803248 1.0650072
0.57887226 0.035018794 1.0650073
0.57472044 0.041042287 1.0611886
0.56702179 0.037034187 1.0589321
0.59138989 0.061155941 1.0650072
0.59138507 0.05813339 1.0650072
0.58828312 0.073232614 1.065007
0.58827829 0.070212282 1.065007
0.58827347 0.067191951 1.0650071
0.58826864 0.06417162 1.0650071
0.58826387 0.061151288 1.0650071
0.58825904 0.058130957 1.0650071
0.58825415 0.05511063 1.0650072
0.58824939 0.052090298 1.0650072
0.58824456 0.049069971 1.0650072
0.58824128 0.047056414 1.0650072
0.58620661 0.076242447 1.0650069
0.58620179 0.073223598 1.0650069
0.58619702 0.07020475 1.0650069
0.58619219 0.067185894 1.0650069
0.58618736 0.064167045 1.0650069
0.58618253 0.061148193 1.065007
0.58617765 0.05812934 1.0650071
0.58617282 0.055110492 1.065007
0.58616805 0.052091643 1.0650071
0.58616322 0.049072791 1.0650071
0.58615994 0.047060225 1.0650072
0.58615506 0.044041377 1.0650073
0.5824194 0.067192391 1.0635946
0.58301026 0.065205403 1.0614096
0.58281356 0.053108886 1.0620624
0.57926184 0.073276177 1.0599297
0.58058685 0.071223736 1.0627129
0.57872725 0.045058411 1.0617508
0.57695991 0.043046232 1.0605843
0.57293296 0.079279095 1.0603398
0.57168078 0.039016813 1.0569789
0.58341599 0.063205153 1.0599053
0.58364761 0.061194915 1.0590416
0.58364534 0.058166426 1.0590321
0.58329183 0.055131692 1.0603149
0.5815919 0.069265239 1.0589838
0.58125889 0.049082637 1.0600967
0.57761431 0.075312257 1.0583297
0.57555622 0.077319831 1.0582628
0.58238739 0.06728588 1.0560299
0.58214718 0.051104892 1.0568231
0.58052182 0.071335502 1.0552324
0.58013195 0.047065739 1.0565387
0.31091329 0.071090162 1.0650001
0.31090879 0.068267018 1.0650001
0.31090429 0.065443859 1.0650002
0.31089833 0.061679654 1.0650002
0.3108938 0.058856502 1.0650003
0.31088927 0.056033351 1.0650003
0.3108848 0.053210199 1.0650003
0.31088036 0.050387047 1.0650004
0.31087437 0.046622843 1.0650005
0.31177947 0.043797161 1.0650007
0.31177652 0.041914631 1.0650005
0.30818146 0.068257779 1.0650001
0.30817693 0.065436564 1.0650002
0.30817097 0.061674945 1.0650002
0.30816641 0.058853734 1.0650003
0.30816191 0.05603252 1.0650003
0.30815744 0.053211305 1.0650004
0.30820632 0.050390474 1.0643065
0.32005364 0.08527568 1.0650003
0.32004467 0.079616398 1.0650003
0.31998301 0.040944733 1.0650008
0.31997851 0.038115099 1.0650008
0.31997398 0.035285469 1.0650009
0.32088327 0.032450698 1.0650011
0.31731069 0.08336959 1.0650002
0.31730619 0.080541909 1.0650002
0.31725207 0.046609662 1.0650007
0.3172476 0.043781977 1.0650007
0.3172431 0.040954292 1.0650007
0.3172386 0.038126606 1.0650007
0.31723556 0.036241483 1.0650008
0.3148737 0.08021228 1.0650001
0.31455091 0.068279333 1.0650002
0.31454641 0.065453589 1.0650003
0.31453133 0.056034449 1.0650005
0.31452692 0.053208709 1.0650003
0.31452242 0.050382968 1.0650004
0.3145164 0.046615314 1.0650004
0.31451187 0.043789577 1.0650007
0.31450737 0.040963836 1.0650007
0.31541419 0.038134266 1.0650008
0.30845609 0.070192501 1.0614699
0.3067337 0.060774967 1.059972
0.3067154 0.058886822 1.0601751
0.33013749 0.089135155 1.0650003
0.33013296 0.086298361 1.0650003
0.33005163 0.035235982 1.065001
0.33004558 0.031453587 1.065001
0.32738408 0.089111485 1.0650003
0.32737961 0.086276643 1.0650003
0.32737356 0.082496859 1.0650004
0.32729828 0.035249501 1.065001
0.32729223 0.031469718 1.0650011
0.32371405 0.086247735 1.0650002
0.32370344 0.079639181 1.0650004
0.32363275 0.035267502 1.065001
0.32393241 0.031804018 1.065001
0.30685851 0.062677607 1.0583626
0.30690023 0.056069434 1.0576714
0.33933926 0.086370952 1.0650005
0.3392562 0.034242995 1.0650012
0.33925316 0.032347437 1.0650014
0.33649161 0.035204366 1.0650012
0.33648562 0.031415865 1.0650012
0.33280918 0.035222445 1.0650012
0.31063867 0.04377209 1.0563253
0.30709767 0.064601555 1.0552409
0.3089149 0.047560994 1.0550359
0.34581673 0.091168553 1.0650007
0.34581372 0.089269921 1.0650008
0.34580916 0.086421974 1.0650009
0.34580463 0.083574027 1.0650009
0.3457275 0.035159014 1.0650015
0.34211418 0.089238115 1.0650007
0.34210965 0.086392805 1.0650007
0.3420189 0.029486557 1.0650015
0.32159078 0.087366976 1.0577918
0.31618989 0.036166079 1.0555148
0.35478055 0.088078335 1.065001
0.35508651 0.085543633 1.065001
0.35508198 0.082689092 1.065001
0.35507742 0.079834551 1.065001
0.35600439 0.077936873 1.0650011
0.35532475 0.040504344 1.0650016
0.35501066 0.037967987 1.0650017
0.35500607 0.03511345 1.0650018
0.35230419 0.089325711 1.065001
0.35229969 0.086473152 1.065001
0.35229361 0.08266975 1.065001
0.35228908 0.079817191 1.065001
0.35222232 0.0379797 1.0650016
0.35221779 0.035127141 1.0650017
0.34952319 0.09120217 1.0650007
0.34952009 0.08930178 1.0650009
0.34951556 0.086451203 1.0650009
0.34950954 0.082650431 1.0650009
0.35036576 0.037987497 1.0650017
0.34943375 0.035140812 1.0650016
0.36532906 0.077036597 1.0650012
0.36532453 0.074174762 1.0650014
0.36531997 0.071312934 1.0650015
0.36531389 0.067497157 1.0650015
0.36530936 0.064635329 1.0650014
0.36529106 0.053188011 1.0650017
0.3652865 0.05032618 1.0650017
0.36528039 0.04651041 1.0650018
0.36222434 0.082420819 1.0650014
0.36253145 0.079880968 1.0650014
0.36252689 0.077021129 1.0650014
0.36252233 0.074161291 1.0650014
0.36251777 0.071301453 1.0650014
0.36344513 0.067491271 1.0650016
0.36344066 0.064630777 1.0650014
0.3634854 0.062727883 1.0645902
0.36342546 0.055095769 1.0650015
0.36342236 0.053188767 1.0650016
0.36279497 0.050011277 1.0650017
0.36247823 0.046516195 1.0650017
0.3624737 0.04365636 1.0650017
0.35881007 0.085572116 1.0650011
0.35880551 0.08271493 1.0650011
0.35880098 0.079857737 1.0650011
0.35879642 0.077000558 1.0650011
0.35972363 0.074147843 1.0650014
0.35994047 0.072275072 1.0630659
0.35967809 0.045569364 1.0650016
0.35874331 0.043666724 1.0650018
0.35873872 0.040809542 1.0650018
0.35873419 0.037952356 1.0650018
0.34177667 0.036070202 1.058315
0.36192986 0.068481296 1.0619555
0.36366919 0.060834203 1.0629834
0.36370003 0.058926586 1.0626919
0.35851723 0.074244916 1.0591495
0.35468304 0.078028433 1.0600883
0.35304409 0.039834045 1.0574409
0.34749973 0.081855409 1.0576011
0.36222053 0.051294178 1.059188
0.36038429 0.047469281 1.0588115
0.35678601 0.076171055 1.0579309
0.34948134 0.037925418 1.0558158
0.36259848 0.06664528 1.0561123
0.53037399 -0.17232333 1.065009
0.53036922 -0.17530274 1.0650091
0.52733713 -0.17215872 1.065009
0.54051524 -0.18183371 1.0650096
0.53341573 -0.17248821 1.0650091
0.5486719 -0.18428837 1.0650097
0.54866713 -0.18728083 1.0650097
0.55583805 -0.1846955 1.06501
0.55583334 -0.18769304 1.0650101
0.55582851 -0.19069058 1.0650101
0.55582541 -0.19268894 1.0650101
0.55276382 -0.18452084 1.0650098
0.55275893 -0.1875162 1.0650098
0.55275416 -0.19051157 1.0650098
0.552751 -0.19250846 1.06501
0.55071682 -0.18440454 1.0650098
0.55071211 -0.18739846 1.0650097
0.55070728 -0.19039236 1.0650098
0.55070406 -0.19238828 1.06501
0.56646216 -0.18463108 1.0650103
0.56611449 -0.18728271 1.0650102
0.5661096 -0.19028756 1.0650103
0.56507444 -0.19323194 1.0650103
0.56302828 -0.18510397 1.0650101
0.56302506 -0.18710573 1.0650103
0.56302029 -0.19010839 1.0650103
0.56301552 -0.19311105 1.0650103
0.55994385 -0.18492876 1.0650101
0.55959719 -0.18757606 1.0650101
0.56027794 -0.1902827 1.0650101
0.5599311 -0.19293 1.0650102
0.57549518 -0.13360885 1.0650097
0.57549042 -0.13662031 1.0650097
0.57548559 -0.13963178 1.0650097
0.57548243 -0.1416394 1.0650098
0.57542151 -0.17978458 1.0650103
0.57541835 -0.18179223 1.0650103
0.57541353 -0.18480369 1.0650103
0.5754087 -0.18781513 1.0650104
0.57238311 -0.13948932 1.0650097
0.57357556 -0.17980641 1.0641708
0.57231581 -0.18161891 1.0650103
0.57231104 -0.18462816 1.0650103
0.57230622 -0.18763739 1.0650103
0.57195735 -0.19029224 1.0650107
0.56921256 -0.18445286 1.0650102
0.56920785 -0.1874599 1.0650103
0.56920302 -0.19046696 1.0650104
0.56537849 -0.18340126 1.0639011
0.56393296 -0.18367793 1.0615203
0.58377874 -0.14202423 1.0650098
0.58377397 -0.14504157 1.0650101
0.58376908 -0.14805894 1.0650102
0.58376431 -0.1510763 1.0650102
0.58375943 -0.15409364 1.0650103
0.58375472 -0.15711103 1.0650102
0.58374983 -0.16012838 1.0650103
0.583745 -0.16314574 1.0650103
0.58374023 -0.16616309 1.0650104
0.58373541 -0.16918045 1.0650104
0.58373058 -0.1721978 1.0650104
0.58372581 -0.17521518 1.0650104
0.58372098 -0.17823255 1.0650104
0.58371615 -0.18124989 1.0650105
0.58170956 -0.13690139 1.06501
0.5817048 -0.13991728 1.06501
0.58170158 -0.14192788 1.06501
0.58169681 -0.14494376 1.06501
0.58169198 -0.14795965 1.0650101
0.58168876 -0.14997023 1.0650101
0.58166254 -0.1700795 1.0649887
0.58165348 -0.1720867 1.0650103
0.58164871 -0.17510259 1.0650103
0.58164388 -0.17811847 1.0650103
0.58163905 -0.18113434 1.0650104
0.58163422 -0.18415022 1.0650104
0.57859808 -0.13676077 1.0650096
0.57859319 -0.13977443 1.0650098
0.57858837 -0.14278811 1.0650098
0.57962012 -0.14585084 1.06501
0.57898265 -0.17534727 1.0646358
0.57818574 -0.17859815 1.0650103
0.57887238 -0.18131526 1.0650105
0.57852262 -0.18397494 1.0650103
0.5781728 -0.18663394 1.0650105
0.57583958 -0.17802724 1.0634573
0.56991309 -0.18187954 1.0623623
0.56149256 -0.18392336 1.0589745
0.59104085 -0.15747486 1.0650104
0.59103602 -0.1604974 1.0650104
0.59103125 -0.16351995 1.0650104
0.58792943 -0.14825782 1.0650102
0.58792466 -0.15127814 1.0650102
0.58791983 -0.15429845 1.0650102
0.587915 -0.15731877 1.0650103
0.58791018 -0.16033909 1.0650103
0.58790541 -0.1633594 1.0650103
0.58790052 -0.16637972 1.0650104
0.58789563 -0.16940004 1.0650105
0.58789086 -0.17242035 1.0650105
0.58788604 -0.17544067 1.0650105
0.58585304 -0.14513949 1.0650102
0.58584827 -0.14815834 1.0650102
0.58584344 -0.15117717 1.0650102
0.58583856 -0.15419599 1.0650103
0.58583385 -0.15721485 1.0650102
0.58582902 -0.16023368 1.0650104
0.58582413 -0.16325252 1.0650104
0.58581936 -0.16627134 1.0650105
0.5858146 -0.1692902 1.0650104
0.58580971 -0.17230901 1.0650105
0.58580494 -0.17532787 1.0650105
0.58580011 -0.17834671 1.0650105
0.58223456 -0.15226948 1.0629889
0.58232349 -0.16844246 1.062567
0.58024335 -0.14818485 1.0626911
0.58042443 -0.17246759 1.0618782
0.57891476 -0.1747064 1.0597517
0.57505703 -0.17869496 1.0586066
0.57266665 -0.18040465 1.0597831
0.56878889 -0.18235472 1.0587544
0.58299059 -0.15468621 1.0601935
0.58344918 -0.15695141 1.058493
0.5830763 -0.16583978 1.0598127
0.58125949 -0.17093283 1.0587982
0.57844448 -0.14569165 1.057798
0.5771305 -0.17678744 1.058637
0.575441 -0.14257656 1.0573792
0.57170326 -0.18097538 1.0555608
0.56759089 -0.18278834 1.0553976
0.58368957 -0.16011479 1.0575904
0.58356905 -0.16308267 1.0580163
0.58170462 -0.15096389 1.0572698
0.58198398 -0.16932607 1.0561279
0.57992131 -0.17327653 1.0560169
